<?xml version="1.0" standalone="no"?>
<!DOCTYPE svg PUBLIC "-//W3C//DTD SVG 1.1//EN" "http://www.w3.org/Graphics/SVG/1.1/DTD/svg11.dtd">
<svg xmlns="http://www.w3.org/2000/svg">
<metadata>Copyright (C) 2022 by original authors @ fontello.com</metadata>
<defs>
<font id="fontello" horiz-adv-x="1000" >
<font-face font-family="fontello" font-weight="400" font-stretch="normal" units-per-em="1000" ascent="850" descent="-150" />
<missing-glyph horiz-adv-x="1000" />
<glyph glyph-name="cloud-raining-06" unicode="&#xe800;" d="M542-25h-292m542 125h-375m-125 0h-84m542-125h-83m-375 250c-115 0-209 93-209 208 0 115 94 209 209 209 1 0 2 0 4 0 38 74 115 125 204 125 105 0 194-71 221-167 2 0 5 0 8 0 104 0 188-84 188-187 0-104-84-188-188-188-156 0-261 0-437 0z" horiz-adv-x="1000" />

<glyph glyph-name="cloud-snowing-01" unicode="&#xe801;" d="M833 215c51 34 84 91 84 156 0 98-75 178-170 187-20 118-123 209-247 209-124 0-227-91-247-209-95-9-170-89-170-187 0-65 33-122 84-156m166 10h1m-1-167h1m166 84h0m0-167h0m167 250h0m0-167h0" horiz-adv-x="1000" />

<glyph glyph-name="moon-01" unicode="&#xe802;" d="M917 190c-55-25-116-39-180-39-240 0-436 196-436 436 0 64 14 125 39 180-151-69-257-221-257-398 0-240 196-436 436-436 177 0 329 106 398 257z" horiz-adv-x="1000" />

<glyph glyph-name="sun" unicode="&#xe803;" d="M500 767v-84m0-666v-84m-333 417h-84m180 237l-59 59m533-59l59 59m-533-533l-59-59m533 59l59-59m121 296h-84m-125 0c0-115-93-208-208-208-115 0-208 93-208 208 0 115 93 208 208 208 115 0 208-93 208-208z" horiz-adv-x="1000" />

<glyph glyph-name="sunrise" unicode="&#xe804;" d="M167 100h-84m180 237l-59 59m533-59l59 59m121-296h-84m-541 0c0 115 93 208 208 208 115 0 208-93 208-208m209-167h-834m584 667l-167 167m0 0l-167-167m167 167v-292" horiz-adv-x="1000" />

<glyph glyph-name="sun-setting-01" unicode="&#xe805;" d="M500 725v-83m-279-97l-58 59m616-59l59 59m-588-379c0 138 112 250 250 250 138 0 250-112 250-250m167 0h-834m709-167h-584" horiz-adv-x="1000" />

<glyph glyph-name="sun-setting-02" unicode="&#xe806;" d="M917 163h-834m750-146h-666m333 708v-83m-333-334h-84m180 237l-59 59m533-59l59 59m121-296h-84m-541 0c0 115 93 209 208 209 115 0 208-94 208-209" horiz-adv-x="1000" />

<glyph glyph-name="sun-setting-03" unicode="&#xe807;" d="M253-21c50-23 114-23 165 0 50 23 114 23 165 0 50-23 114-23 165 0m-248 746v-83m-333-334h-84m180 237l-59 59m533-59l59 59m121-296h-84m-541 0c0 115 93 209 208 209 115 0 208-94 208-209m-620-183c50 22 114 22 165 0 50-23 114-23 165 0 50 22 114 22 165 0 50-23 114-23 165 0 50 22 114 22 165 0" horiz-adv-x="1000" />

<glyph glyph-name="thermometer-01" unicode="&#xe808;" d="M604 663c0 57-46 104-104 104-57 0-104-47-104-104v-386c-50-34-83-91-83-156 0-104 83-188 187-188 104 0 188 84 188 188 0 65-34 122-84 156v386z" horiz-adv-x="1000" />

<glyph glyph-name="thermometer-02" unicode="&#xe809;" d="M604 663c0 57-46 104-104 104-57 0-104-47-104-104v-386c-50-34-83-91-83-156 0-104 83-188 187-188 104 0 188 84 188 188 0 65-34 122-84 156v386z m-104-584c23 0 42 19 42 42 0 23-19 42-42 42-23 0-42-19-42-42 0-23 19-42 42-42z" horiz-adv-x="1000" />

<glyph glyph-name="thermometer-03" unicode="&#xe80a;" d="M875 725l-250 0m250-167l-250 0m250-166l-250 0m-396-115v386c0 57 47 104 104 104 58 0 105-47 105-104v-386c50-34 83-91 83-156 0-104-84-188-188-188-103 0-187 84-187 188 0 65 33 122 83 156z m146-156c0-23-19-42-42-42-23 0-41 19-41 42 0 23 18 42 41 42 23 0 42-19 42-42z" horiz-adv-x="1000" />

<glyph glyph-name="thermometer-cold" unicode="&#xe80b;" d="M83 350h417m-125 333v-666m-250 458l125-125-125-125m375 375l-125-125-125 125m0-500l125 125 63-62m395 81v439c0 46-37 84-83 84-46 0-83-38-83-84v-439c-50-28-84-82-84-144 0-92 75-167 167-167 92 0 167 75 167 167 0 62-34 116-84 144z" horiz-adv-x="1000" />

<glyph glyph-name="thermometer-warm" unicode="&#xe80c;" d="M500 475c-37 1-73-11-103-34-30-22-51-54-61-90-9-36-7-74 8-108 15-34 40-62 73-80m83 562v-83m-225-559l-58-58m-50 283h-84m192 225l-58 59m616-348v439c0 46-37 84-83 84-46 0-83-38-83-84v-439c-50-28-84-82-84-144 0-92 75-167 167-167 92 0 167 75 167 167 0 62-34 116-84 144z" horiz-adv-x="1000" />

<glyph glyph-name="wind-01" unicode="&#xe80d;" d="M875 100c0 0-50 20-83 29-214 60-370-118-584-58-33 9-83 29-83 29m750 250c0 0-50 20-83 29-214 60-370-118-584-58-33 9-83 29-83 29m750 250c0 0-50 20-83 29-214 60-370-118-584-58-33 9-83 29-83 29" horiz-adv-x="1000" />

<glyph glyph-name="wind-02" unicode="&#xe80e;" d="M396 656c16 17 38 27 62 27 46 0 84-37 84-83 0-46-38-83-84-83h-375m438-473c16-17 38-27 62-27 46 0 84 37 84 83 0 46-38 83-84 83h-500m616 375c22 26 56 42 93 42 69 0 125-56 125-125 0-69-56-125-125-125h-709" horiz-adv-x="1000" />

<glyph glyph-name="wind-03" unicode="&#xe80f;" d="M699 579c22 26 56 42 93 42 69 0 125-56 125-125 0-69-56-125-125-125h-250m-260 312c23 26 56 42 93 42 69 0 125-56 125-125 0-69-56-125-125-125h-292m366-458c22-26 56-42 93-42 69 0 125 56 125 125 0 69-56 125-125 125h-459" horiz-adv-x="1000" />

<glyph glyph-name="cloud-03" unicode="&#xe810;" d="M396 58c-173 0-313 140-313 313 0 172 140 312 313 312 120 0 224-67 277-167 5 1 10 1 15 1 126 0 229-103 229-229 0-127-103-230-229-230-107 0-183 0-292 0z" horiz-adv-x="1000" />

<glyph glyph-name="cloud-lightning" unicode="&#xe811;" d="M792 194c73 26 125 95 125 177 0 98-75 178-170 187-20 118-123 209-247 209-124 0-227-91-247-209-95-9-170-89-170-187 0-82 53-151 125-177m334 239l-167-250h250l-167-250" horiz-adv-x="1000" />

<glyph glyph-name="cloud-raining-01" unicode="&#xe812;" d="M833 215c51 34 84 91 84 156 0 98-75 178-170 187-20 118-123 209-247 209-124 0-227-91-247-209-95-9-170-89-170-187 0-65 33-122 84-156m166-115v-83m0 333v-83m334-167v-83m0 333v-83m-167-250v-84m0 334v-84" horiz-adv-x="1000" />

<glyph glyph-name="cloud-raining-02" unicode="&#xe813;" d="M667 350v-333m-334 333v-333m167 250v-334m333 282c51 34 84 91 84 156 0 98-75 178-170 187-20 118-123 209-247 209-124 0-227-91-247-209-95-9-170-89-170-187 0-65 33-122 84-156" horiz-adv-x="1000" />

<glyph glyph-name="cloud-raining-03" unicode="&#xe814;" d="M833 215c51 34 84 91 84 156 0 98-75 178-170 187-20 118-123 209-247 209-124 0-227-91-247-209-95-9-170-89-170-187 0-65 33-122 84-156m343 10l-116-292m316 375l-116-291m-217 291l-117-291" horiz-adv-x="1000" />

<glyph glyph-name="cloud-raining-04" unicode="&#xe815;" d="M667 79v-104m-334 104v-104m167 63v-105m-208 292c-115 0-209 93-209 208 0 115 94 209 209 209 1 0 2 0 4 0 38 74 115 125 204 125 105 0 194-71 221-167 2 0 5 0 8 0 104 0 188-84 188-187 0-104-84-188-188-188-156 0-261 0-437 0z" horiz-adv-x="1000" />

<glyph glyph-name="cloud-raining-05" unicode="&#xe816;" d="M667 79l-42-104m-292 104l-41-104m208 104l-42-104m-166 250c-115 0-209 93-209 208 0 115 94 209 209 209 1 0 2 0 4 0 38 74 115 125 204 125 105 0 194-71 221-167 2 0 5 0 8 0 104 0 188-84 188-187 0-104-84-188-188-188-156 0-261 0-437 0z" horiz-adv-x="1000" />

<glyph glyph-name="vector" unicode="&#xe817;" d="M964-48l-314 314c49 63 75 140 75 221 0 97-37 188-106 257-68 68-159 106-256 106-97 0-188-38-257-106-68-69-106-160-106-257 0-97 38-188 106-256 69-69 160-106 257-106 81 0 158 26 221 75l314-314c1-1 2-2 3-3 1 0 2 0 4 0 1 0 2 0 3 0 2 1 3 2 4 3l52 52c1 1 2 2 3 3 0 2 0 3 0 4 0 1 0 3 0 4-1 1-2 2-3 3z m-410 344c-51-51-119-80-191-80-73 0-140 29-192 80-51 51-79 119-79 191 0 73 28 141 79 192 52 51 119 79 192 79 72 0 140-28 191-79 51-51 80-119 80-192 0-72-29-140-80-191z" horiz-adv-x="1000" />
</font>
</defs>
</svg>
